<svg xmlns="http://www.w3.org/2000/svg" width="30" height="30" viewBox="0 0 30 30">
  <path id="firm" d="M8.75,17.5A1.25,1.25,0,0,1,7.5,18.75H6.25a1.25,1.25,0,0,1,0-2.5H7.5A1.25,1.25,0,0,1,8.75,17.5Zm5-1.25H12.5a1.25,1.25,0,0,0,0,2.5h1.25a1.25,1.25,0,0,0,0-2.5ZM7.5,6.25H6.25a1.25,1.25,0,0,0,0,2.5H7.5a1.25,1.25,0,0,0,0-2.5Zm6.25,0H12.5a1.25,1.25,0,0,0,0,2.5h1.25a1.25,1.25,0,0,0,0-2.5Zm-6.25,5H6.25a1.25,1.25,0,0,0,0,2.5H7.5a1.25,1.25,0,0,0,0-2.5Zm6.25,0H12.5a1.25,1.25,0,0,0,0,2.5h1.25a1.25,1.25,0,0,0,0-2.5ZM30,12.5V23.75A6.258,6.258,0,0,1,23.75,30H6.25A6.258,6.258,0,0,1,0,23.75V6.25A6.257,6.257,0,0,1,6.25,0h7.5A6.257,6.257,0,0,1,20,6.25h3.75A6.258,6.258,0,0,1,30,12.5ZM6.25,27.5H17.5V6.25A3.75,3.75,0,0,0,13.75,2.5H6.25A3.75,3.75,0,0,0,2.5,6.25v17.5A3.75,3.75,0,0,0,6.25,27.5Zm21.25-15a3.75,3.75,0,0,0-3.75-3.75H20V27.5h3.75a3.75,3.75,0,0,0,3.75-3.75Zm-3.75,3.75A1.25,1.25,0,1,0,25,17.5,1.25,1.25,0,0,0,23.75,16.25Zm0,5A1.25,1.25,0,1,0,25,22.5,1.25,1.25,0,0,0,23.75,21.25Z" fill="#707070"/>
</svg>
