<svg xmlns="http://www.w3.org/2000/svg" width="30" height="30" viewBox="0 0 30 30">
  <path id="product" d="M27.572,5.272,19.374.907a7.324,7.324,0,0,0-6.8,0l-8.2,4.365A6.218,6.218,0,0,0,.973,10.7v8.731a6.22,6.22,0,0,0,3.4,5.433l8.2,4.364a7.32,7.32,0,0,0,6.8,0l8.2-4.364a6.22,6.22,0,0,0,3.4-5.433V10.7a6.218,6.218,0,0,0-3.4-5.432ZM13.933,3.081a4.381,4.381,0,0,1,4.081,0l8.2,4.364a3.986,3.986,0,0,1,.584.414l-8.424,4.485a5.155,5.155,0,0,1-4.8,0L5.15,7.859a3.986,3.986,0,0,1,.584-.414Zm-8.2,19.613a3.73,3.73,0,0,1-2.04-3.261V10.7a3.363,3.363,0,0,1,.1-.671l8.424,4.485a7.885,7.885,0,0,0,2.4.8v12a4.127,4.127,0,0,1-.68-.258Zm22.518-3.261a3.73,3.73,0,0,1-2.04,3.261l-8.2,4.365a4.127,4.127,0,0,1-.68.258v-12a7.885,7.885,0,0,0,2.4-.8l8.424-4.485a3.363,3.363,0,0,1,.1.671Z" transform="translate(-0.973 -0.069)" fill="#707070"/>
</svg>
