<svg id="reject" xmlns="http://www.w3.org/2000/svg" width="31.55" height="31.55" viewBox="0 0 31.55 31.55">
  <path id="Path_41" data-name="Path 41" d="M18.609,8.092a1.315,1.315,0,0,0-1.859,0l-3.4,3.4-3.4-3.4A1.314,1.314,0,1,0,8.092,9.951l3.4,3.4-3.4,3.4a1.314,1.314,0,1,0,1.859,1.859l3.4-3.4,3.4,3.4a1.314,1.314,0,1,0,1.859-1.859l-3.4-3.4,3.4-3.4A1.315,1.315,0,0,0,18.609,8.092Z" transform="translate(2.424 2.424)" fill="#ff4646"/>
  <path id="Path_42" data-name="Path 42" d="M15.775,0A15.775,15.775,0,1,0,31.55,15.775,15.775,15.775,0,0,0,15.775,0Zm0,28.921A13.146,13.146,0,1,1,28.921,15.775,13.146,13.146,0,0,1,15.775,28.921Z" transform="translate(0 0)" fill="#ff4646"/>
</svg>
