<svg xmlns="http://www.w3.org/2000/svg" width="24.385" height="16.817" viewBox="0 0 24.385 16.817">
  <g id="rise" transform="translate(-23.999 -48)">
    <path id="Path_61" data-name="Path 61" d="M25.26,64.817a1.257,1.257,0,0,0,.892-.369l7.1-7.1,2.892,2.892a1.261,1.261,0,0,0,1.784,0l7.937-7.937v2.84a1.261,1.261,0,0,0,2.523,0V49.261A1.261,1.261,0,0,0,47.122,48H41.236a1.261,1.261,0,0,0,0,2.523h2.841l-7.045,7.045L34.14,54.676a1.261,1.261,0,0,0-1.784,0l-7.988,7.988a1.261,1.261,0,0,0,.892,2.153Z" fill="#3ee500"/>
  </g>
</svg>
