<svg xmlns="http://www.w3.org/2000/svg" width="29.5" height="29.5" viewBox="0 0 29.5 29.5">
  <path id="security_deposit" d="M6.425,4.95h23.6a1.475,1.475,0,1,0,0-2.95H6.425A4.425,4.425,0,0,0,2,6.425v20.65A4.425,4.425,0,0,0,6.425,31.5H13.8a4.425,4.425,0,0,0,4.425-4.425V20.311l1.907,1.907a1.475,1.475,0,1,0,2.086-2.086l-4.425-4.425a1.46,1.46,0,0,0-.481-.32,1.475,1.475,0,0,0-1.127,0,1.46,1.46,0,0,0-.481.32l-4.425,4.425a1.475,1.475,0,1,0,2.086,2.086l1.91-1.907v6.764A1.475,1.475,0,0,1,13.8,28.55H6.425A1.475,1.475,0,0,1,4.95,27.075v-16.5a4.375,4.375,0,0,0,1.475.271H28.55v17.7h-5.9a1.475,1.475,0,0,0,0,2.95h7.375A1.475,1.475,0,0,0,31.5,30.025V9.375A1.475,1.475,0,0,0,30.025,7.9H6.425a1.475,1.475,0,0,1,0-2.95Z" transform="translate(-2 -2)" fill="#1055a0"/>
</svg>
